<mxfile host="app.diagrams.net" agent="Mozilla/5.0 (Windows NT 10.0; Win64; x64) AppleWebKit/537.36 (KHTML, like Gecko) Chrome/131.0.0.0 Safari/537.36" version="26.0.4">
  <diagram id="2YAjyTRri8dnU00XAK0B" name="Page-1">
    <mxGraphModel dx="2074" dy="1180" grid="1" gridSize="10" guides="1" tooltips="1" connect="1" arrows="1" fold="1" page="1" pageScale="1" pageWidth="850" pageHeight="1100" math="0" shadow="0">
      <root>
        <mxCell id="0" />
        <mxCell id="1" parent="0" />
        <mxCell id="oveQQTuPVoKeoszos3Cz-3" value="ActiveMQ Artemis" style="rounded=0;whiteSpace=wrap;html=1;fillColor=#fff2cc;strokeColor=#d6b656;verticalAlign=top;" parent="1" vertex="1">
          <mxGeometry x="450" y="560" width="250" height="100" as="geometry" />
        </mxCell>
        <mxCell id="oveQQTuPVoKeoszos3Cz-1" value="Employees Spring Boot Application" style="rounded=0;whiteSpace=wrap;html=1;verticalAlign=top;fillColor=#fff2cc;strokeColor=#d6b656;" parent="1" vertex="1">
          <mxGeometry x="80" y="140" width="690" height="400" as="geometry" />
        </mxCell>
        <mxCell id="oveQQTuPVoKeoszos3Cz-10" style="edgeStyle=orthogonalEdgeStyle;rounded=0;orthogonalLoop=1;jettySize=auto;html=1;exitX=1;exitY=0.5;exitDx=0;exitDy=0;" parent="1" source="oveQQTuPVoKeoszos3Cz-2" target="oveQQTuPVoKeoszos3Cz-7" edge="1">
          <mxGeometry relative="1" as="geometry" />
        </mxCell>
        <mxCell id="oveQQTuPVoKeoszos3Cz-2" value="employees.queue" style="rounded=0;whiteSpace=wrap;html=1;fillColor=#ffe6cc;strokeColor=#d79b00;" parent="1" vertex="1">
          <mxGeometry x="515" y="590" width="120" height="60" as="geometry" />
        </mxCell>
        <mxCell id="oveQQTuPVoKeoszos3Cz-9" style="edgeStyle=orthogonalEdgeStyle;rounded=0;orthogonalLoop=1;jettySize=auto;html=1;exitX=1;exitY=0.5;exitDx=0;exitDy=0;entryX=0;entryY=0.5;entryDx=0;entryDy=0;" parent="1" source="oveQQTuPVoKeoszos3Cz-4" target="oveQQTuPVoKeoszos3Cz-2" edge="1">
          <mxGeometry relative="1" as="geometry">
            <Array as="points">
              <mxPoint x="410" y="300" />
              <mxPoint x="410" y="620" />
            </Array>
          </mxGeometry>
        </mxCell>
        <mxCell id="D7XK9PiqegN8Fi0l53yU-4" style="edgeStyle=orthogonalEdgeStyle;rounded=0;orthogonalLoop=1;jettySize=auto;html=1;exitX=0;exitY=0.5;exitDx=0;exitDy=0;" parent="1" source="oveQQTuPVoKeoszos3Cz-4" target="D7XK9PiqegN8Fi0l53yU-3" edge="1">
          <mxGeometry relative="1" as="geometry" />
        </mxCell>
        <mxCell id="oveQQTuPVoKeoszos3Cz-4" value="EmployeesService" style="rounded=0;whiteSpace=wrap;html=1;fillColor=#ffe6cc;strokeColor=#d79b00;" parent="1" vertex="1">
          <mxGeometry x="230" y="270" width="160" height="60" as="geometry" />
        </mxCell>
        <mxCell id="oveQQTuPVoKeoszos3Cz-8" style="edgeStyle=orthogonalEdgeStyle;rounded=0;orthogonalLoop=1;jettySize=auto;html=1;entryX=0.5;entryY=0;entryDx=0;entryDy=0;" parent="1" source="oveQQTuPVoKeoszos3Cz-5" target="oveQQTuPVoKeoszos3Cz-4" edge="1">
          <mxGeometry relative="1" as="geometry" />
        </mxCell>
        <mxCell id="oveQQTuPVoKeoszos3Cz-5" value="EmployeesController" style="rounded=0;whiteSpace=wrap;html=1;fillColor=#ffe6cc;strokeColor=#d79b00;" parent="1" vertex="1">
          <mxGeometry x="230" y="190" width="160" height="60" as="geometry" />
        </mxCell>
        <mxCell id="oveQQTuPVoKeoszos3Cz-6" value="EventsService" style="rounded=0;whiteSpace=wrap;html=1;fillColor=#ffe6cc;strokeColor=#d79b00;" parent="1" vertex="1">
          <mxGeometry x="570" y="270" width="170" height="60" as="geometry" />
        </mxCell>
        <mxCell id="oveQQTuPVoKeoszos3Cz-11" style="edgeStyle=orthogonalEdgeStyle;rounded=0;orthogonalLoop=1;jettySize=auto;html=1;exitX=0.5;exitY=0;exitDx=0;exitDy=0;entryX=0.5;entryY=1;entryDx=0;entryDy=0;" parent="1" source="oveQQTuPVoKeoszos3Cz-7" target="oveQQTuPVoKeoszos3Cz-6" edge="1">
          <mxGeometry relative="1" as="geometry" />
        </mxCell>
        <mxCell id="oveQQTuPVoKeoszos3Cz-7" value="EmployeesQueueListener" style="rounded=0;whiteSpace=wrap;html=1;fillColor=#ffe6cc;strokeColor=#d79b00;" parent="1" vertex="1">
          <mxGeometry x="570" y="350" width="170" height="60" as="geometry" />
        </mxCell>
        <mxCell id="D7XK9PiqegN8Fi0l53yU-3" value="EmployeeRepository" style="rounded=0;whiteSpace=wrap;html=1;fillColor=#ffe6cc;strokeColor=#d79b00;" parent="1" vertex="1">
          <mxGeometry x="120" y="420" width="130" height="60" as="geometry" />
        </mxCell>
        <mxCell id="D7XK9PiqegN8Fi0l53yU-5" value="PostgreSQL" style="rounded=0;whiteSpace=wrap;html=1;fillColor=#fff2cc;strokeColor=#d6b656;verticalAlign=top;" parent="1" vertex="1">
          <mxGeometry x="200" y="560" width="170" height="100" as="geometry" />
        </mxCell>
        <mxCell id="D7XK9PiqegN8Fi0l53yU-6" value="employees" style="rounded=0;whiteSpace=wrap;html=1;fillColor=#ffe6cc;strokeColor=#d79b00;" parent="1" vertex="1">
          <mxGeometry x="225" y="590" width="120" height="60" as="geometry" />
        </mxCell>
        <mxCell id="D7XK9PiqegN8Fi0l53yU-7" style="edgeStyle=orthogonalEdgeStyle;rounded=0;orthogonalLoop=1;jettySize=auto;html=1;exitX=0.5;exitY=1;exitDx=0;exitDy=0;entryX=0;entryY=0.5;entryDx=0;entryDy=0;" parent="1" source="D7XK9PiqegN8Fi0l53yU-3" target="D7XK9PiqegN8Fi0l53yU-6" edge="1">
          <mxGeometry relative="1" as="geometry" />
        </mxCell>
      </root>
    </mxGraphModel>
  </diagram>
</mxfile>
